<mxfile host="app.diagrams.net" modified="2023-08-10T21:59:14.335Z" agent="Mozilla/5.0 (X11; Linux x86_64; rv:109.0) Gecko/20100101 Firefox/116.0" version="21.6.6" etag="l7GriMc31KXqb8WAf2_7" type="github">
  <diagram name="Seite-1" id="OtIs3u6GroKxIcm-r0cA">
    <mxGraphModel>
      <root>
        <mxCell id="0" />
        <mxCell id="1" parent="0" />
      </root>
    </mxGraphModel>
  </diagram>
</mxfile>
